<svg width="1647" height="1106" viewBox="0 0 1647 1106" fill="none" xmlns="http://www.w3.org/2000/svg">
<path d="M0 0H1647V1106H0V0Z" fill="black"/>
<path d="M359 773.5L340 768L312 793.5L295 835.5L332.5 846.5L345 803.5L368.5 784L359 773.5Z" fill="#FEB803"/>
<path d="M614 890.5L575.5 818L467 825L357.5 838L327 868L270.5 944.5L291.5 952.5L326 944.5L342 967.5L365.5 965.5L414.5 909L459.5 846H502.5L534 909V956L552.5 962.5L574 942L608 954L627.5 949.5L614 890.5Z" fill="#934E21"/>
<path d="M423.5 824.5L419.5 811.5L413 802L345.5 847C348 848.667 353.2 852.1 354 852.5C354.8 852.9 364 864.333 368.5 870L382 868.5L390.5 860L387.5 854.5L390.5 855.5H400.5L407 844.5L404.5 841L411.5 842L422 834L423.5 824.5Z" fill="black"/>
<path d="M310 749.5L336.5 764.5L305.5 788.5L291.5 831.5L269.5 818L251.5 798L224.5 761.5L246.5 741.5H291.5L310 749.5Z" fill="#934E21"/>
<path d="M611 456L588 394H560L592.5 456L604 530L577.5 573L637 530L629 516.5L611 456Z" fill="#934E21"/>
<path d="M360 730L328 752.5L296.5 737L313.5 723.5L331.5 735L354 710L360 730Z" fill="#934E21"/>
<path d="M961 252.5C934.833 283.167 881.5 345.6 877.5 350L861.5 343.5L889 226L961 252.5Z" fill="#FFE682"/>
<path d="M836.5 172.5L819.5 339L798.5 344L742 188L836.5 172.5Z" fill="#FEB803"/>
<path d="M713.5 245L753 341.5L739.5 351.5L661.5 272L713.5 245Z" fill="#FFE682"/>
<path d="M687.5 346C698.167 358.333 719.6 383.4 720 385L709.5 396L662 375L687.5 346Z" fill="#FEB803"/>
<path d="M934 339L899 375L908 387L949.5 371.5L934 339Z" fill="#FEB803"/>
<path d="M664.5 519L578 584.5L558.5 590.5L537 611.5L544 627.5L569.5 672.5L641.5 627.5L707 594L720.5 590.5L725.5 575.5L741 565L748 556L709.5 534L686 489.5L678.5 502L664.5 519Z" fill="#934E21"/>
<path d="M591 571L570 582.5L559.5 592L568 598.5L589.5 653.5L641 656.5L627.5 620.5H612L638 598.5L601.5 592L615.5 566L593 577.5L591 571Z" fill="black"/>
<path d="M714.5 527.5L691.5 485L694 481L721.5 463.5L739.5 501L775.5 513.5L752 550L714.5 527.5Z" fill="#FEB803"/>
<path d="M523 779.5C493.833 782.5 435.1 788.5 433.5 788.5L441.5 823.5L504.5 814L580.5 810.5L566.5 768L523 779.5Z" fill="#FEB803"/>
<path d="M582 713.5L532.5 618L516.5 624L490 650L383 624L400.5 637L356.5 678.5V704L365.5 732L377.5 764L433.5 781.5L513.5 774.5L565.5 761.5L563.5 744.5L582 713.5Z" fill="#934E21"/>
<path d="M563 680.5C569.667 693.167 582.2 715.7 583 716.5L584.5 721.5L596.5 705.5C591.333 692.5 580.6 666.1 579 664.5C577.4 662.9 559 636.167 550 623L520 633.5L513 673L534.5 654.5L555 690L563 680.5Z" fill="black"/>
<path d="M519.5 639L536.5 625.5L568.5 580.5L516.5 624L489.5 648L384 623V644L493 665L519.5 639Z" fill="#FEB803"/>
<path d="M602.5 315L615.5 389.5H486.5L427 407.5L194 499L168.5 437L435.5 320L500.5 310.5L602.5 315Z" fill="#FEB803"/>
<path d="M488 250.5L542 297.5L548.5 304.5L488 299L462 304.5L386 329.5L193 419L230.5 299L314.5 262L386 238.5L488 250.5Z" fill="#934E21"/>
<path d="M379.998 211.585L372.549 238.288L349 246.5L316.366 249.26L271.396 228.523L302.167 225.45L263.292 201.058L233.602 158.809L284.533 173.344L249.184 131.782L235.004 63L290.747 96.4327L313.907 145.306L320.824 129.138L329.556 159.221L341.602 132.182L343.505 153.684L379.998 211.585Z" fill="#FEB803"/>
<path d="M336 510.877L368.75 585L425.829 613H514.16L564.065 576.527L598 530.815L587.52 459.815L554.084 400H535.619H514.16H488.21L415.349 421.397L362.949 444.253L353.966 451.548L336 510.877Z" fill="#FFA953"/>
<path d="M493.535 580.47L469.056 566.181L485.217 561.382L494.943 555.599L505.223 554.422L513.472 551.757L526.65 552.459L537.795 551.183L530.2 572.34L514.325 582.862L493.535 580.47Z" fill="#D74314"/>
<path d="M583.5 500.5L594.5 503L597 521.5L583.5 507.5L547 498L583.5 500.5Z" fill="#D74314"/>
<path d="M359.893 603L387.5 644.5L412.5 646.5L425 681.061L391.855 665.685L401.325 704.716L369.363 683.426L330.299 728.371L315 717.5L297 732.5L249 732.5L217.5 759L236.782 788.5L191.799 836L182.329 795.787L195.35 755.574L151.551 801.701L182.329 728.371L214.291 709.447L189.432 712.995L148 704.716L171.675 699.985L198.902 660.954L240.333 657.406L191.799 630.203L253.355 624.289L233.231 603C256.906 606.154 304.493 612.462 305.44 612.462C306.387 612.462 342.137 629.02 359.893 637.299V603Z" fill="#FEB803"/>
<path d="M424 680.5L406 628L415 628.5L431 690L400 675.5L407.5 715.5L368 694L331.5 735L328 729.5L369 683.5L400 703L391.5 665.5L424 680.5Z" fill="black"/>
<path d="M594.991 596.043L605.308 578.5L608.5 572L592.5 583L583.5 578.5L565.5 590L568.5 580.5L539.5 609.5L516 626L507 642.825L523.991 630.155L519.137 662.317L535.521 644.774L555.547 681.81L563.39 672.852L586 713.5L569 744V763.5L598.5 746L601 772L615 753L626.547 770.5L631.402 737.363V724.5L647.179 742.236L631.402 681.81L615.017 666.216L627.761 669.14L649 662.317L636.863 658.419L622.906 626.256L601.667 623.332L626.547 600.916L594.991 596.043Z" fill="#FEB803"/>
<path d="M407 634.5L394.5 625.5L387.5 623.5L396.5 634.5L327.5 708.5L407 634.5Z" fill="#934E21"/>
<path d="M524 629L523 636.5L513 673L519 636.5L493.5 643L500 637.5L570 579L513 631L524 629Z" fill="black"/>
<path d="M245.5 589.5L217 495.5L348.5 448.5L329 509.5L365 599.5L396.5 634.5L323.5 704.5L268 690.5L245.5 589.5Z" fill="#934E21"/>
<path d="M514 517.083L507 527L508 510L514 517.083Z" fill="#D74314"/>
<path d="M443.593 523.5L441.5 516L442.5 490.5L400.438 479L354 511.256L384.959 542.023L412.165 545L443.593 523.5Z" fill="white"/>
<path d="M399.5 523.917L389 491.25L396 479L443.25 489.5L445 523.917L426.917 535L399.5 523.917Z" fill="black"/>
<path d="M433 620.5C463.167 621.5 504.3 620.5 511.5 620.5L490 638L433 620.5Z" fill="#D74314"/>
<path d="M380.5 444L363.5 453L353 459.5L380 454L440 470L380.5 444Z" fill="black"/>
<path d="M550.492 416.282L576.76 427.489L555.655 424.742L514.174 461.079L550.492 416.282Z" fill="black"/>
<path d="M542.861 449.527L512.856 496.5L542.861 466.5L573.355 479.5L591.856 444L569.302 461.136L542.861 449.527Z" fill="black"/>
<path d="M357.5 613.5L313 515.5L328.5 455.779L348.5 448L330 506L366 597.5L396.5 634.5L326 705L268.5 693L265 671L317 690L375 634.5L357.5 613.5Z" fill="#FEB803"/>
<path d="M437 642.5L419.5 632V626L373 595L375.5 609.5L396.5 635L399 654L415 670L409 691L431.5 702.5L422 717L431.5 733.5L455.5 726.5L460 709.5L444.5 698L452.5 675.5L434.5 663L437 642.5Z" fill="black"/>
<path d="M533.215 628.754L546.342 613.127L542.256 601L578.256 563L580.615 577.524L569.065 608.473L572.889 627.251L562.972 647.59L575.485 665.491L566 680.5L571.661 694.307L568.053 713.001L543.082 714.2L533.291 699.592L544.2 683.671L529.308 665.003L542.256 647.322L533.215 628.754Z" fill="black"/>
<path d="M567.5 722V716L544 717L546.5 722H567.5Z" fill="#FEB803"/>
<path d="M569 731.812L566.143 726.79L567.286 724H547.286L549 726.79L545 736.833L553.571 759L558.143 749.667V741.297L569 731.812Z" fill="black"/>
<path d="M437.035 750.972L438.561 745.332L436.701 742.924L456.543 737.608L455.569 740.775L462.152 749.472L462.152 765.438L452.455 776.323L452.455 765.438L442.629 762.824L437.035 750.972Z" fill="black"/>
<path d="M434.553 740.878L433 735.082L455.958 729.966L454.837 735.443L434.553 740.878Z" fill="#FEB803"/>
<path d="M423 468L450.5 490H392L364.5 521L304.5 487.5L350.5 494L381.5 465L423 468Z" fill="black"/>
<path d="M425 505L409.205 533L397 527.974L425 505Z" fill="white"/>
<path d="M326 703L392.5 639.5L360.5 676L328 710.5L268 696.5L263.5 670.5L266 667L273 693.5L326 703Z" fill="#934E21"/>
<path d="M410 439L365 466L388.5 461L412 450.5L410 439Z" fill="#FFA953"/>
<path d="M398.286 792.091L388.333 790.677L371.998 789L348.5 806.5L340.5 842L357.383 848.628L372.717 865.948L380.323 864.771L386.086 857.973L376.456 839.771L391.046 852.283L396.751 851.401L402.365 843.641L393.389 823.369L408.276 837.804L415.138 831.82L417.9 824.501C411.729 813.969 398.286 792.091 398.286 792.091Z" fill="#FFA953"/>
<path d="M758.997 422.717L753.256 420.051L763.371 421.574L758.747 441.113L775.776 442.497L776.521 457.3L773.522 443.919L755.102 442.066L758.997 422.717Z" fill="#D74314"/>
<path d="M738 450.97L742.418 482.262L745 492.5L760 501.5L776.5 486.5L819 402.213L813.845 388.386L789 423L802.064 373.104L776.5 412.5L785.5 365L776 367.5L738 450.97Z" fill="#D74314"/>
<path d="M729 449L745 492.5L760.5 501.5L776 487L772 451.5L751.5 434.5L772 430L775 423L762 410.5L723.5 430L729 449Z" fill="#FFA953"/>
<path d="M786.5 377.5V363.5L791 371.5L793.5 373.5L777.5 411.5L786.5 377.5Z" fill="black"/>
<path d="M806 392V378L810.5 386L813 388L797 426L806 392Z" fill="black"/>
<path d="M433.5 788.5L441.5 823.5L425.5 825L400.5 786.5L376.5 781.5V773L433.5 788.5Z" fill="#D74314"/>
<path d="M776.5 367.5L786 364.5L786.5 365.5L787 376L776.5 410.5L792 374L793.5 372H802L805.5 378.5L804 385.5L793.5 415.5L809.5 385.5H818L820 401.5L805.5 433.5L795 455.5L778.5 484.5L776.5 449L766.5 438L773.5 435L779 421L764 406.5L776.5 367.5Z" fill="#FFA953"/>
<path d="M901.17 454.924L892.302 484.741L888.265 494.285L873.5 496L856 481L830 387.5L837.926 386.438L854.158 418.083L848.193 366.811L868.149 410.121L865.906 361.948L875.049 366.157L901.17 454.924Z" fill="black"/>
<path d="M897.781 468.353L884.823 485.334L854.594 516.754L827.825 517.944L808.213 516.684L806.442 505.99L811.043 491.759L844.591 453.596L872.289 452.718L858.763 434.261L860.963 425.857L879.661 423.754L888.091 441.878L897.781 468.353Z" fill="#232322"/>
<path d="M878.765 421.309L889.634 377.259L888.543 371.277L883.724 368.052L882.716 368.519L875.987 376.791L867.187 408.808L860.127 415.517L873.13 371.599L873.116 368.892L866.212 362.859L859.455 365.716L856.458 372.531L847.264 413.145L841.076 418.602L850.343 375.672L838.271 373.394L831.085 382.359L824.195 429.822L811.519 488.548L839.873 447.389L862.74 448.306L853.572 436.456L858.562 422.768L878.765 421.309Z" fill="#232322"/>
<path d="M1322 599.5C1296.17 613.667 1243.9 642.2 1241.5 643L1306.5 629.5H1330.5L1373.5 660.5L1447 776L1413.5 817.5L1431 839L1381 891L1396.5 921.5L1444 931L1423.5 961L1286.5 986L1263 975.5L1224.5 912.5L1220 891L1191.5 899L1098 865L1177.5 916.5L1151.5 950L1105.5 964.5L1003.5 950L988 902.5L1068.5 827L1074.5 814L1057.5 788L1089.5 671.5L1054 643V701.5L886 629.5L870 609.5L923 590.5L959.5 524.5L1009 599.5L1052 640.5L1064.5 643L1060.5 628.5L1009 563L996 531.5L975 476L996 327.5L1086 263.5L1179.5 227L1309.5 243.5L1430.5 349.5L1405.5 373.5L1348 315.5L1415 422L1430.5 535.5L1385 590.5L1322 599.5Z" fill="#FEB803"/>
<path d="M1101 283.918L1093.5 270L1148.5 250.5L1163.5 246.5L1128.28 283.918L1170.95 307.457H1123.22L1067.5 311.5L1101 283.918Z" fill="#FFE682"/>
<path d="M1404.83 373.684L1349.99 316.268L1413.55 418.619L1431 535.948L1384.88 590.868L1322 599.5L1249 640.5L1160 666.5L1199.5 645L1279 586.5L1374.91 538.444L1357.46 509.736L1322 522.5L1357.46 426.108L1307.61 339.983L1332.54 329.998C1309.69 310.443 1263.49 271.083 1261.49 270.085C1259.5 269.086 1322.09 279.339 1354.5 283.5L1430.5 349.5L1404.83 373.684Z" fill="#F69320"/>
<path d="M1312.97 458.029L1308.88 503.611L1292.5 535L1256.5 559.5L1250 559.5L1214.5 552L1167 530.353L1129 523L1082 530.353L1066.5 544L1056 547L1034.5 546L1013 530.353L1000 496L1009 370.474L1023 352L1039.93 340.727L1087.64 332.104L1204.93 335.333L1287.44 370.474L1316.5 420.5L1312.97 458.029Z" fill="black"/>
<path d="M1302 433L1294.63 502.943L1279 529L1252.5 548.5L1218.5 543.5L1169 519L1130 512L1078 519L1065 533.5L1038 533.5L1020.5 519L1011.12 495.426L1012.42 454.462L1018.5 375.5L1030 360L1050.5 347.5L1087.57 341.5L1198.5 347.5L1248.5 369L1277.38 386.853L1302 433Z" fill="#232322"/>
<path d="M1241.5 641.5C1261.83 637.333 1303.2 628.9 1306 628.5L1314 627L1268 663L1258.5 710L1302 765.5L1372.5 758L1328.5 776.5L1376 788.5L1413 816.5L1433.5 839.5L1385.5 894.5C1374.67 899.833 1352.5 910.5 1350.5 910.5C1348.5 910.5 1313.67 908.833 1296.5 908L1294 903.5L1280.5 892L1271 895.5L1247.5 870.5L1268 827.5L1291 801.5L1296.5 786.5L1228.5 725.5L1219.5 658.5L1169 673.5L1164 687L1159 665.5L1241.5 641.5Z" fill="black"/>
<path d="M1129.5 512L1209.06 350.427L1198.52 346.663L1103.51 342.338L1088.5 341.5L1050 349.5L1078 519L1129.5 512Z" fill="#464345"/>
<path d="M1099.71 429.871L1129.01 343.5L1099.5 342L1088.5 341.5L1099.71 429.871Z" fill="#FFE682"/>
<path d="M1215.23 385.06L1241.73 351.942L1235.48 383.352L1247.02 388.982L1175 488L1229.45 388.535L1215.23 385.06Z" fill="black"/>
<path d="M1267.16 392.436L1253.49 371.5L1278.84 387.13L1306 427.5L1295 502.5L1278.5 529.5L1252.5 548.5L1218.5 543L1209 539L1260.13 501.076L1267.16 392.436Z" fill="#464345"/>
<path d="M1096 664C1087.03 694.485 1055 794.19 1055 796.5L1050 628L1058.5 626L1060.5 628L1137.5 670.5L1139 689.5L1133 677L1096 664Z" fill="black"/>
<path d="M1184.48 714.5C1196.98 710 1222.58 700.9 1224.98 700.5L1228.48 725L1298.48 784L1291.98 801.5L1267 829.5L1248.5 868.5L1250 874L1253.5 877.5L1189.48 899.5L1174.48 891.5L1200 884C1199.2 882.4 1220.5 862 1220.5 862L1184.48 829.5L1204.98 835.5L1262.48 796.5L1228.48 768.5H1255.48L1184.48 714.5Z" fill="#F4911D"/>
<path d="M1082.5 752C1100.83 767.667 1138.9 800.3 1144.5 805.5L1170 832L1135.5 820L1082.5 752Z" fill="#F4911D"/>
<path d="M1417 728.5C1403.83 747.833 1376 788.5 1376 788.5L1413.5 817.5L1448 777L1417 728.5Z" fill="#F4911D"/>
<path d="M1144 908C1129.33 896 1098 865 1098 865L1178.5 916L1151 951L1109.94 963.05L1105.5 964.5C1105.46 964.463 1105.42 964.426 1105.38 964.389L1105 964.5L1004.5 951L988 902C1005.17 904 1039.8 908 1041 908C1042.2 908 1084.67 945.354 1105.38 964.389L1109.94 963.05L1130 956.5L1071.5 914L1144 908Z" fill="#F4911D"/>
<path d="M1332 933.5C1296.83 922.667 1225.5 900.8 1221.5 900L1225 911.5L1261.5 975L1286.5 986.5L1423 963.5L1446 931L1414.5 900L1383 895.5C1371.67 912.333 1348.9 945.8 1348.5 947C1348.1 948.2 1307 972.833 1286.5 985L1255.5 963.5L1332 933.5Z" fill="#F4911D"/>
<path d="M1477.16 293.818L1478.13 332.733L1511.86 352.159L1472.95 353.129L1453.52 386.863L1452.55 347.948L1418.82 328.522L1457.73 327.552L1477.16 293.818Z" fill="#FFE682"/>
<path d="M1422.34 239.935L1435.96 261.664L1461.61 261.338L1439.88 274.964L1440.21 300.61L1426.58 278.881L1400.93 279.207L1422.66 265.581L1422.34 239.935Z" fill="#FFE682"/>
<path d="M126.523 574.818L125.552 613.733L91.8184 633.159L130.733 634.129L150.159 667.863L151.129 628.948L184.863 609.522L145.948 608.552L126.523 574.818Z" fill="#FFE682"/>
<path d="M181.344 520.935L167.718 542.664L142.072 542.338L163.801 555.964L163.474 581.61L177.101 559.881L202.747 560.207L181.018 546.581L181.344 520.935Z" fill="#FFE682"/>
<path d="M925.5 632C936.5 596.5 958.5 525.2 958.5 524L923 589.5L868.5 608.5L886.5 629.5L1047.5 720L1073 648.5L1056 641L1008.5 598.5L1040 675.5L1017.5 668L970 589.5L925.5 632Z" fill="#F4911D"/>
<path d="M1359.71 794.082L1312 780L1302 811.5L1299 814.5L1276.5 836L1260 864.5L1276.5 877.398L1295.5 864.5L1317.5 844.5L1291 889.133L1312 898.5L1339.17 877.398L1332 898.5H1355L1382.98 873.878L1416.5 833.5L1359.71 794.082Z" fill="#232322"/>
<path d="M1383.5 845.5L1399.5 823L1401 822L1418 834L1396.5 857L1383.5 845.5Z" fill="#464345"/>
<path d="M1351 822C1357.5 813.667 1370.9 796.6 1372.5 795L1306.5 783L1315.5 773.5L1375.5 787.5L1439.5 835L1430.5 843.5L1401 822L1384.5 845L1399 858.5L1391 869.5L1372.5 847L1352.5 831L1292.5 812L1305 806L1351 822Z" fill="black"/>
<path d="M1303 807.5L1310 782.5L1327 786.5L1315.5 810L1305.5 806L1303 807.5Z" fill="#464345"/>
<path d="M1171 825.5C1171 825.5 1062.36 796 1060 796L1074 813.5L1068.5 827.5L1175.03 855L1258 847.5L1287 812L1171 825.5Z" fill="black"/>
<path d="M1140 693.5L1135 677.5L1138 671.5L1145.5 689.5L1147 803.5L1176.5 890L1194 899L1192 902.5L1172.5 893C1162.5 864.833 1142.5 808.1 1142.5 806.5C1142.5 804.9 1140.83 730.5 1140 693.5Z" fill="black"/>
<path d="M1466.97 1036.91C1468.21 1035.67 1432.16 973.487 1432.16 971L1397.36 977.218L1438.38 1036.91L1373.74 1009.55C1355.1 1017.01 1316.56 1031.94 1316.56 1031.94L1309.1 1019.5L1373.74 993.5L1379.96 980.949L1287.97 995.872L1306.62 1031.94L1283 1056.81L1397.36 1068C1420.15 1058.05 1465.97 1037.91 1466.97 1036.91Z" fill="#232322"/>
<path d="M1438.5 1035.5C1418.17 1027.33 1375.5 1010.3 1373.5 1009.5L1328.5 1033.5L1382 1046.5L1438.5 1035.5Z" fill="#464345"/>
<path d="M1165.68 1038.88C1167.06 1038.01 1147.48 974.635 1148 972.399L1115.38 970.777L1139.95 1032.95L1087.43 994.956C1069.1 997.801 1032.23 1003.44 1031.33 1003.23C1030.44 1003.03 1028.2 994.664 1027.19 990.507L1098.95 970.526L1013.06 964.883L1022.38 1001.17L995.973 1018.64L1096.59 1052.41C1119.16 1048.18 1164.58 1039.56 1165.68 1038.88Z" fill="#232322"/>
<path d="M1115 1017.5C1115 1017.5 1088.38 996.341 1086.58 995.151L1035 1008L1087.38 1033.11L1115 1017.5Z" fill="#464345"/>
<path d="M1288 1028C1319.83 1015.33 1383.7 989.8 1384.5 989L1392.5 1000L1275.5 1061L1298 1035.5L1288 1028Z" fill="black"/>
<path d="M1000 997.5C1037.17 987.333 1111.9 967 1113.5 967L1098.5 991.5L972 1025L1000 997.5Z" fill="black"/>
<path d="M900.881 495.303L935.519 515.803L938.44 517.013L903.488 571.678L858.898 592.578L811.499 526L872.189 532.367L900.881 495.303Z" fill="#232322"/>
<path d="M924.995 551.147L873.397 522.427L852.999 527C852.999 527 872.55 589.535 872.009 591.502C871.469 593.469 894.056 584.543 905.418 579.835L924.995 551.147Z" fill="black"/>
<path d="M925.485 537.147L900.312 496.265L939.937 517.119L925.485 537.147Z" fill="#464345"/>
<path d="M1293.03 672.849C1307.19 666.222 1333.04 653.881 1334.06 653.317L1343.1 657.633L1349.88 672.077L1347.86 681.138L1304.13 700.3L1297.31 694.751L1292.71 684.232L1293.03 672.849Z" fill="#232322"/>
<path d="M1348.12 716.273C1344.47 708.915 1337.03 694.089 1336.47 693.645L1322.09 698.618L1335.62 722.036L1348.12 716.273Z" fill="#232322"/>
<path d="M253.898 950.466L239.154 962.868L247.865 979.806L236.415 998.183L263.1 994.059L272.147 1004.74L308.116 1002.93L329.575 1001.85L351.321 1016.16L372.868 1012.72L385.623 1001.41L375.301 981.329L370.801 971.621L341.895 978.081L323.395 958.631L290.13 964.164L253.898 950.466Z" fill="#FEB803"/>
<path d="M360.294 1046.21L360.941 1037.24L366.076 1020.92L346.751 1024.9L326.448 1009.4L270.518 1012.21L255.135 1004.97L237.017 1010L198.4 1044.53L267.597 1064.49L332.778 1065.65L360.294 1046.21Z" fill="#934E21"/>
<path d="M645.976 956.61L658.71 971.068L647.575 986.522L656.162 1006.4L630.389 998.348L619.852 1007.56L584.554 1000.42L563.494 996.157L539.861 1007.07L519.065 1000.47L508.135 987.387L521.332 969.061L527.226 960.131L554.849 970.822L576.037 954.342L608.108 964.763L645.976 956.61Z" fill="#FEB803"/>
<path d="M526.514 1035.46L527.211 1026.48L524.561 1009.59L543.079 1016.39L565.463 1004.09L620.351 1015.19L636.639 1010.33L653.808 1017.99L686.856 1057.89L615.458 1067.33L550.831 1058.77L526.514 1035.46Z" fill="#934E21"/>
</svg>
